<mxfile host="app.diagrams.net" modified="2021-10-11T06:51:28.788Z" agent="5.0 (Windows NT 10.0; Win64; x64) AppleWebKit/537.36 (KHTML, like Gecko) Chrome/94.0.4606.81 Safari/537.36" etag="M2wMU4F7Y08PwSG__sLy" version="14.8.6" type="github">
  <diagram id="H0Mi5hwWkKQ8ShPoYodS" name="Page-1">
    <mxGraphModel dx="2044" dy="2105" grid="1" gridSize="10" guides="1" tooltips="1" connect="1" arrows="1" fold="1" page="1" pageScale="1" pageWidth="827" pageHeight="1169" math="0" shadow="0">
      <root>
        <mxCell id="0" />
        <mxCell id="1" parent="0" />
        <mxCell id="G8hzo4sFn4AmgjtlCouS-1" value="" style="rounded=0;whiteSpace=wrap;html=1;" vertex="1" parent="1">
          <mxGeometry x="80" y="80" width="280" height="240" as="geometry" />
        </mxCell>
        <mxCell id="G8hzo4sFn4AmgjtlCouS-26" value="" style="rounded=0;whiteSpace=wrap;html=1;" vertex="1" parent="1">
          <mxGeometry x="90" y="-390" width="1090" height="430" as="geometry" />
        </mxCell>
        <mxCell id="G8hzo4sFn4AmgjtlCouS-12" style="edgeStyle=orthogonalEdgeStyle;rounded=0;orthogonalLoop=1;jettySize=auto;html=1;" edge="1" parent="1" source="G8hzo4sFn4AmgjtlCouS-3" target="G8hzo4sFn4AmgjtlCouS-9">
          <mxGeometry relative="1" as="geometry" />
        </mxCell>
        <mxCell id="G8hzo4sFn4AmgjtlCouS-3" value="Experience API" style="rounded=0;whiteSpace=wrap;html=1;" vertex="1" parent="1">
          <mxGeometry x="160" y="210" width="120" height="60" as="geometry" />
        </mxCell>
        <mxCell id="G8hzo4sFn4AmgjtlCouS-4" value="" style="rounded=0;whiteSpace=wrap;html=1;" vertex="1" parent="1">
          <mxGeometry x="660" y="-230" width="430" height="230" as="geometry" />
        </mxCell>
        <mxCell id="G8hzo4sFn4AmgjtlCouS-16" value="ECS&lt;br&gt;Service discovery" style="edgeStyle=orthogonalEdgeStyle;rounded=0;orthogonalLoop=1;jettySize=auto;html=1;entryX=0;entryY=0.5;entryDx=0;entryDy=0;" edge="1" parent="1" source="G8hzo4sFn4AmgjtlCouS-6" target="G8hzo4sFn4AmgjtlCouS-7">
          <mxGeometry relative="1" as="geometry" />
        </mxCell>
        <mxCell id="G8hzo4sFn4AmgjtlCouS-6" value="Domain API" style="rounded=0;whiteSpace=wrap;html=1;" vertex="1" parent="1">
          <mxGeometry x="680" y="-95" width="120" height="60" as="geometry" />
        </mxCell>
        <mxCell id="G8hzo4sFn4AmgjtlCouS-7" value="&amp;nbsp;SAPI" style="rounded=0;whiteSpace=wrap;html=1;" vertex="1" parent="1">
          <mxGeometry x="950" y="-95" width="120" height="60" as="geometry" />
        </mxCell>
        <mxCell id="G8hzo4sFn4AmgjtlCouS-8" value="Amazon ECS" style="outlineConnect=0;fontColor=#232F3E;gradientColor=none;strokeColor=#ffffff;fillColor=#232F3E;dashed=0;verticalLabelPosition=middle;verticalAlign=bottom;align=center;html=1;whiteSpace=wrap;fontSize=10;fontStyle=1;spacing=3;shape=mxgraph.aws4.productIcon;prIcon=mxgraph.aws4.ecs;" vertex="1" parent="1">
          <mxGeometry x="970" y="-220" width="80" height="100" as="geometry" />
        </mxCell>
        <mxCell id="G8hzo4sFn4AmgjtlCouS-13" style="edgeStyle=orthogonalEdgeStyle;rounded=0;orthogonalLoop=1;jettySize=auto;html=1;" edge="1" parent="1" source="G8hzo4sFn4AmgjtlCouS-9" target="G8hzo4sFn4AmgjtlCouS-11">
          <mxGeometry relative="1" as="geometry" />
        </mxCell>
        <mxCell id="G8hzo4sFn4AmgjtlCouS-21" value="Lambda authorizer" style="edgeStyle=orthogonalEdgeStyle;rounded=0;orthogonalLoop=1;jettySize=auto;html=1;" edge="1" parent="1" source="G8hzo4sFn4AmgjtlCouS-9" target="G8hzo4sFn4AmgjtlCouS-20">
          <mxGeometry relative="1" as="geometry" />
        </mxCell>
        <mxCell id="G8hzo4sFn4AmgjtlCouS-9" value="Amazon API Gateway" style="outlineConnect=0;fontColor=#232F3E;gradientColor=none;strokeColor=#ffffff;fillColor=#232F3E;dashed=0;verticalLabelPosition=middle;verticalAlign=bottom;align=center;html=1;whiteSpace=wrap;fontSize=10;fontStyle=1;spacing=3;shape=mxgraph.aws4.productIcon;prIcon=mxgraph.aws4.api_gateway;" vertex="1" parent="1">
          <mxGeometry x="180" y="-120" width="80" height="110" as="geometry" />
        </mxCell>
        <mxCell id="G8hzo4sFn4AmgjtlCouS-24" style="edgeStyle=orthogonalEdgeStyle;rounded=0;orthogonalLoop=1;jettySize=auto;html=1;entryX=0;entryY=0.5;entryDx=0;entryDy=0;" edge="1" parent="1" source="G8hzo4sFn4AmgjtlCouS-11" target="G8hzo4sFn4AmgjtlCouS-6">
          <mxGeometry relative="1" as="geometry" />
        </mxCell>
        <mxCell id="G8hzo4sFn4AmgjtlCouS-11" value="Network Load Balancer" style="outlineConnect=0;fontColor=#232F3E;gradientColor=none;strokeColor=#ffffff;fillColor=#232F3E;dashed=0;verticalLabelPosition=middle;verticalAlign=bottom;align=center;html=1;whiteSpace=wrap;fontSize=10;fontStyle=1;spacing=3;shape=mxgraph.aws4.productIcon;prIcon=mxgraph.aws4.network_load_balancer;" vertex="1" parent="1">
          <mxGeometry x="500" y="-120" width="80" height="110" as="geometry" />
        </mxCell>
        <mxCell id="G8hzo4sFn4AmgjtlCouS-15" value="Amazon ECS" style="outlineConnect=0;fontColor=#232F3E;gradientColor=none;strokeColor=#ffffff;fillColor=#232F3E;dashed=0;verticalLabelPosition=middle;verticalAlign=bottom;align=center;html=1;whiteSpace=wrap;fontSize=10;fontStyle=1;spacing=3;shape=mxgraph.aws4.productIcon;prIcon=mxgraph.aws4.ecs;" vertex="1" parent="1">
          <mxGeometry x="280" y="80" width="80" height="100" as="geometry" />
        </mxCell>
        <mxCell id="G8hzo4sFn4AmgjtlCouS-20" value="" style="verticalLabelPosition=bottom;html=1;verticalAlign=top;strokeWidth=1;align=center;outlineConnect=0;dashed=0;outlineConnect=0;shape=mxgraph.aws3d.lambda;fillColor=#ECECEC;strokeColor=#5E5E5E;aspect=fixed;" vertex="1" parent="1">
          <mxGeometry x="174" y="-340" width="92" height="109.5" as="geometry" />
        </mxCell>
      </root>
    </mxGraphModel>
  </diagram>
</mxfile>
